<mxfile host="app.diagrams.net" modified="2023-03-29T12:54:47.414Z" agent="Mozilla/5.0 (Windows NT 10.0; Win64; x64) AppleWebKit/537.36 (KHTML, like Gecko) Chrome/111.0.0.0 Safari/537.36" etag="9Vr96ZQR_gVZuebmYkWa" version="21.1.1" type="github">
  <diagram name="페이지-1" id="OepLF5BfwGW0L4MisocV">
    <mxGraphModel dx="1434" dy="764" grid="1" gridSize="10" guides="1" tooltips="1" connect="1" arrows="1" fold="1" page="1" pageScale="1" pageWidth="827" pageHeight="1169" math="0" shadow="0">
      <root>
        <mxCell id="0" />
        <mxCell id="1" parent="0" />
        <mxCell id="uBhow-OmortB9lnPxihI-15" style="rounded=0;orthogonalLoop=1;jettySize=auto;html=1;entryX=0;entryY=0.5;entryDx=0;entryDy=0;endArrow=none;endFill=0;" edge="1" parent="1" source="uBhow-OmortB9lnPxihI-1" target="uBhow-OmortB9lnPxihI-3">
          <mxGeometry relative="1" as="geometry" />
        </mxCell>
        <mxCell id="uBhow-OmortB9lnPxihI-16" style="rounded=0;orthogonalLoop=1;jettySize=auto;html=1;entryX=0;entryY=0.5;entryDx=0;entryDy=0;endArrow=none;endFill=0;exitX=1;exitY=0.3333333333333333;exitDx=0;exitDy=0;exitPerimeter=0;" edge="1" parent="1" source="uBhow-OmortB9lnPxihI-1" target="uBhow-OmortB9lnPxihI-5">
          <mxGeometry relative="1" as="geometry" />
        </mxCell>
        <mxCell id="uBhow-OmortB9lnPxihI-17" style="rounded=0;orthogonalLoop=1;jettySize=auto;html=1;entryX=0;entryY=0.5;entryDx=0;entryDy=0;endArrow=none;endFill=0;exitX=1;exitY=0.3333333333333333;exitDx=0;exitDy=0;exitPerimeter=0;" edge="1" parent="1" source="uBhow-OmortB9lnPxihI-1" target="uBhow-OmortB9lnPxihI-6">
          <mxGeometry relative="1" as="geometry" />
        </mxCell>
        <mxCell id="uBhow-OmortB9lnPxihI-18" style="rounded=0;orthogonalLoop=1;jettySize=auto;html=1;endArrow=none;endFill=0;exitX=1;exitY=0.3333333333333333;exitDx=0;exitDy=0;exitPerimeter=0;" edge="1" parent="1" source="uBhow-OmortB9lnPxihI-1" target="uBhow-OmortB9lnPxihI-7">
          <mxGeometry relative="1" as="geometry" />
        </mxCell>
        <mxCell id="uBhow-OmortB9lnPxihI-1" value="Actor" style="shape=umlActor;verticalLabelPosition=bottom;verticalAlign=top;html=1;outlineConnect=0;" vertex="1" parent="1">
          <mxGeometry x="60" y="260" width="30" height="60" as="geometry" />
        </mxCell>
        <mxCell id="uBhow-OmortB9lnPxihI-2" value="게시판 서비스" style="shape=umlFrame;whiteSpace=wrap;html=1;pointerEvents=0;width=100;height=20;" vertex="1" parent="1">
          <mxGeometry x="180" y="130" width="690" height="460" as="geometry" />
        </mxCell>
        <mxCell id="uBhow-OmortB9lnPxihI-3" value="회원 가입" style="rounded=1;whiteSpace=wrap;html=1;arcSize=40;fontColor=#000000;fillColor=#ffffc0;strokeColor=#ff0000;" vertex="1" parent="1">
          <mxGeometry x="200" y="200" width="120" height="40" as="geometry" />
        </mxCell>
        <mxCell id="uBhow-OmortB9lnPxihI-22" style="rounded=0;orthogonalLoop=1;jettySize=auto;html=1;entryX=0.5;entryY=1;entryDx=0;entryDy=0;dashed=1;" edge="1" parent="1" source="uBhow-OmortB9lnPxihI-5" target="uBhow-OmortB9lnPxihI-7">
          <mxGeometry relative="1" as="geometry" />
        </mxCell>
        <mxCell id="uBhow-OmortB9lnPxihI-5" value="게시글 보기" style="rounded=1;whiteSpace=wrap;html=1;arcSize=40;fontColor=#000000;fillColor=#ffffc0;strokeColor=#ff0000;" vertex="1" parent="1">
          <mxGeometry x="200" y="290" width="120" height="40" as="geometry" />
        </mxCell>
        <mxCell id="uBhow-OmortB9lnPxihI-23" style="rounded=0;orthogonalLoop=1;jettySize=auto;html=1;entryX=0.45;entryY=1.05;entryDx=0;entryDy=0;entryPerimeter=0;dashed=1;" edge="1" parent="1" source="uBhow-OmortB9lnPxihI-6" target="uBhow-OmortB9lnPxihI-7">
          <mxGeometry relative="1" as="geometry" />
        </mxCell>
        <mxCell id="uBhow-OmortB9lnPxihI-6" value="게시글 보기" style="rounded=1;whiteSpace=wrap;html=1;arcSize=40;fontColor=#000000;fillColor=#ffffc0;strokeColor=#ff0000;" vertex="1" parent="1">
          <mxGeometry x="200" y="380" width="120" height="40" as="geometry" />
        </mxCell>
        <mxCell id="uBhow-OmortB9lnPxihI-19" value="&amp;lt;&amp;lt;include&amp;gt;&amp;gt;" style="rounded=0;orthogonalLoop=1;jettySize=auto;html=1;entryX=0;entryY=0.5;entryDx=0;entryDy=0;endArrow=classic;endFill=1;dashed=1;" edge="1" parent="1" source="uBhow-OmortB9lnPxihI-7" target="uBhow-OmortB9lnPxihI-8">
          <mxGeometry relative="1" as="geometry">
            <Array as="points" />
          </mxGeometry>
        </mxCell>
        <mxCell id="uBhow-OmortB9lnPxihI-7" value="회원 로그인" style="rounded=1;whiteSpace=wrap;html=1;arcSize=40;fontColor=#000000;fillColor=#ffffc0;strokeColor=#ff0000;" vertex="1" parent="1">
          <mxGeometry x="390" y="150" width="120" height="40" as="geometry" />
        </mxCell>
        <mxCell id="uBhow-OmortB9lnPxihI-8" value="인증" style="rounded=1;whiteSpace=wrap;html=1;arcSize=40;fontColor=#000000;fillColor=#ffffc0;strokeColor=#ff0000;" vertex="1" parent="1">
          <mxGeometry x="660" y="150" width="120" height="40" as="geometry" />
        </mxCell>
        <mxCell id="uBhow-OmortB9lnPxihI-21" value="&amp;lt;&amp;lt;extend&amp;gt;&amp;gt;" style="rounded=0;orthogonalLoop=1;jettySize=auto;html=1;endArrow=classic;endFill=1;dashed=1;dashPattern=8 8;entryX=1;entryY=0.5;entryDx=0;entryDy=0;" edge="1" parent="1" source="uBhow-OmortB9lnPxihI-9" target="uBhow-OmortB9lnPxihI-7">
          <mxGeometry relative="1" as="geometry" />
        </mxCell>
        <mxCell id="uBhow-OmortB9lnPxihI-9" value="로그인 실패" style="rounded=1;whiteSpace=wrap;html=1;arcSize=40;fontColor=#000000;fillColor=#ffffc0;strokeColor=#ff0000;" vertex="1" parent="1">
          <mxGeometry x="660" y="240" width="120" height="40" as="geometry" />
        </mxCell>
        <mxCell id="uBhow-OmortB9lnPxihI-24" style="rounded=0;orthogonalLoop=1;jettySize=auto;html=1;entryX=1;entryY=0.5;entryDx=0;entryDy=0;dashed=1;" edge="1" parent="1" source="uBhow-OmortB9lnPxihI-10" target="uBhow-OmortB9lnPxihI-5">
          <mxGeometry relative="1" as="geometry" />
        </mxCell>
        <mxCell id="uBhow-OmortB9lnPxihI-10" value="게시판 정렬" style="rounded=1;whiteSpace=wrap;html=1;arcSize=40;fontColor=#000000;fillColor=#ffffc0;strokeColor=#ff0000;" vertex="1" parent="1">
          <mxGeometry x="400" y="290" width="120" height="40" as="geometry" />
        </mxCell>
        <mxCell id="uBhow-OmortB9lnPxihI-25" style="rounded=0;orthogonalLoop=1;jettySize=auto;html=1;entryX=1;entryY=0.5;entryDx=0;entryDy=0;strokeColor=default;dashed=1;" edge="1" parent="1" source="uBhow-OmortB9lnPxihI-11" target="uBhow-OmortB9lnPxihI-5">
          <mxGeometry relative="1" as="geometry" />
        </mxCell>
        <mxCell id="uBhow-OmortB9lnPxihI-11" value="게시판 검색" style="rounded=1;whiteSpace=wrap;html=1;arcSize=40;fontColor=#000000;fillColor=#ffffc0;strokeColor=#ff0000;" vertex="1" parent="1">
          <mxGeometry x="400" y="380" width="120" height="40" as="geometry" />
        </mxCell>
        <mxCell id="uBhow-OmortB9lnPxihI-26" style="rounded=0;orthogonalLoop=1;jettySize=auto;html=1;entryX=1;entryY=0.5;entryDx=0;entryDy=0;dashed=1;" edge="1" parent="1" source="uBhow-OmortB9lnPxihI-12" target="uBhow-OmortB9lnPxihI-6">
          <mxGeometry relative="1" as="geometry" />
        </mxCell>
        <mxCell id="uBhow-OmortB9lnPxihI-12" value="게시글 쓰기, 수정, 삭제" style="rounded=1;whiteSpace=wrap;html=1;arcSize=50;fontColor=#000000;fillColor=#ffffc0;strokeColor=#ff0000;" vertex="1" parent="1">
          <mxGeometry x="390" y="460" width="150" height="40" as="geometry" />
        </mxCell>
        <mxCell id="uBhow-OmortB9lnPxihI-27" style="rounded=0;orthogonalLoop=1;jettySize=auto;html=1;entryX=1;entryY=0.5;entryDx=0;entryDy=0;strokeColor=none;dashed=1;" edge="1" parent="1" source="uBhow-OmortB9lnPxihI-13" target="uBhow-OmortB9lnPxihI-6">
          <mxGeometry relative="1" as="geometry" />
        </mxCell>
        <mxCell id="uBhow-OmortB9lnPxihI-28" style="rounded=0;orthogonalLoop=1;jettySize=auto;html=1;entryX=1;entryY=0.5;entryDx=0;entryDy=0;dashed=1;" edge="1" parent="1" source="uBhow-OmortB9lnPxihI-13" target="uBhow-OmortB9lnPxihI-6">
          <mxGeometry relative="1" as="geometry" />
        </mxCell>
        <mxCell id="uBhow-OmortB9lnPxihI-13" value="댓글 보기, 쓰기, 수정, 삭제" style="rounded=1;whiteSpace=wrap;html=1;arcSize=50;fontColor=#000000;fillColor=#ffffc0;strokeColor=#ff0000;" vertex="1" parent="1">
          <mxGeometry x="390" y="540" width="150" height="40" as="geometry" />
        </mxCell>
      </root>
    </mxGraphModel>
  </diagram>
</mxfile>
